<?xml version="1.0" encoding="UTF-8"?>
<svg xmlns="http://www.w3.org/2000/svg" xmlns:xlink="http://www.w3.org/1999/xlink" width="26px" height="6px" viewBox="0 0 8 2" version="1.1" >
<g id="surface1">
<path style=" stroke:none;fill-rule:nonzero;fill:currentColor   ;fill-opacity:1;" d="M 1.125 0.285156 C 1.152344 0.285156 1.183594 0.285156 1.210938 0.285156 C 1.265625 0.285156 1.316406 0.285156 1.367188 0.285156 C 1.445312 0.285156 1.523438 0.285156 1.601562 0.28125 C 1.746094 0.28125 1.894531 0.28125 2.039062 0.28125 C 2.152344 0.28125 2.265625 0.28125 2.378906 0.28125 C 2.394531 0.28125 2.410156 0.28125 2.425781 0.28125 C 2.433594 0.28125 2.441406 0.28125 2.449219 0.28125 C 2.460938 0.28125 2.460938 0.28125 2.476562 0.28125 C 2.488281 0.28125 2.488281 0.28125 2.5 0.28125 C 2.726562 0.28125 2.953125 0.28125 3.179688 0.28125 C 3.191406 0.28125 3.199219 0.28125 3.207031 0.28125 C 3.25 0.28125 3.292969 0.28125 3.335938 0.28125 C 3.351562 0.28125 3.351562 0.28125 3.363281 0.28125 C 3.382812 0.28125 3.398438 0.28125 3.414062 0.28125 C 3.6875 0.28125 3.957031 0.28125 4.230469 0.28125 C 4.535156 0.28125 4.839844 0.28125 5.144531 0.28125 C 5.175781 0.28125 5.210938 0.28125 5.242188 0.28125 C 5.25 0.28125 5.257812 0.28125 5.265625 0.28125 C 5.386719 0.28125 5.507812 0.28125 5.628906 0.28125 C 5.765625 0.28125 5.902344 0.28125 6.039062 0.28125 C 6.117188 0.28125 6.195312 0.28125 6.269531 0.28125 C 6.320312 0.28125 6.375 0.28125 6.425781 0.28125 C 6.453125 0.28125 6.484375 0.28125 6.511719 0.28125 C 6.679688 0.28125 6.847656 0.292969 7.007812 0.363281 C 7.015625 0.367188 7.023438 0.371094 7.027344 0.375 C 7.09375 0.402344 7.152344 0.4375 7.210938 0.472656 C 7.226562 0.484375 7.246094 0.496094 7.265625 0.503906 C 7.425781 0.601562 7.570312 0.75 7.695312 0.894531 C 7.699219 0.898438 7.707031 0.90625 7.710938 0.910156 C 7.714844 0.914062 7.71875 0.921875 7.722656 0.925781 C 7.726562 0.929688 7.730469 0.933594 7.734375 0.9375 C 7.746094 0.960938 7.746094 0.972656 7.742188 0.996094 C 7.726562 1.019531 7.726562 1.019531 7.707031 1.042969 C 7.695312 1.054688 7.695312 1.054688 7.683594 1.066406 C 7.664062 1.085938 7.648438 1.109375 7.628906 1.128906 C 7.621094 1.136719 7.613281 1.144531 7.609375 1.152344 C 7.5625 1.207031 7.511719 1.253906 7.460938 1.300781 C 7.457031 1.304688 7.453125 1.304688 7.445312 1.308594 C 7.183594 1.539062 6.890625 1.664062 6.554688 1.664062 C 6.539062 1.664062 6.523438 1.664062 6.503906 1.664062 C 6.460938 1.664062 6.414062 1.664062 6.367188 1.664062 C 6.320312 1.664062 6.269531 1.667969 6.222656 1.667969 C 6.136719 1.667969 6.054688 1.667969 5.972656 1.667969 C 5.859375 1.667969 5.746094 1.667969 5.632812 1.667969 C 5.0625 1.671875 4.488281 1.671875 3.699219 1.671875 C 3.691406 1.671875 3.683594 1.671875 3.679688 1.671875 C 3.289062 1.671875 2.902344 1.667969 2.511719 1.667969 C 2.480469 1.667969 2.449219 1.667969 2.417969 1.667969 C 2.40625 1.667969 2.40625 1.667969 2.394531 1.667969 C 2.269531 1.667969 2.140625 1.667969 2.011719 1.667969 C 1.878906 1.667969 1.742188 1.667969 1.609375 1.667969 C 1.527344 1.667969 1.445312 1.667969 1.367188 1.667969 C 1.3125 1.667969 1.257812 1.667969 1.199219 1.667969 C 1.167969 1.667969 1.136719 1.667969 1.105469 1.667969 C 1.078125 1.667969 1.046875 1.667969 1.019531 1.664062 C 1.003906 1.664062 0.988281 1.664062 0.972656 1.664062 C 0.882812 1.664062 0.796875 1.648438 0.710938 1.613281 C 0.707031 1.613281 0.703125 1.609375 0.695312 1.609375 C 0.636719 1.582031 0.582031 1.550781 0.523438 1.519531 C 0.519531 1.515625 0.511719 1.511719 0.507812 1.507812 C 0.328125 1.402344 0.328125 1.402344 0.3125 1.351562 C 0.3125 1.328125 0.3125 1.304688 0.3125 1.277344 C 0.3125 1.273438 0.3125 1.265625 0.3125 1.257812 C 0.308594 1.234375 0.308594 1.207031 0.308594 1.183594 C 0.308594 1.167969 0.308594 1.152344 0.308594 1.136719 C 0.308594 1.101562 0.308594 1.066406 0.308594 1.03125 C 0.308594 0.984375 0.308594 0.941406 0.308594 0.894531 C 0.308594 0.859375 0.308594 0.824219 0.308594 0.792969 C 0.308594 0.773438 0.308594 0.757812 0.308594 0.742188 C 0.308594 0.71875 0.308594 0.695312 0.308594 0.671875 C 0.308594 0.664062 0.308594 0.660156 0.308594 0.652344 C 0.308594 0.613281 0.3125 0.585938 0.335938 0.558594 C 0.566406 0.351562 0.835938 0.28125 1.125 0.285156 Z M 1.125 0.285156 "/>
<path style=" stroke:none;fill-rule:nonzero;fill:rgb(74.509804%,74.509804%,74.509804%);fill-opacity:1;" d="M 0.851562 0.4375 C 1.125 0.4375 1.398438 0.4375 1.683594 0.4375 C 1.683594 0.796875 1.683594 1.152344 1.683594 1.519531 C 1.410156 1.519531 1.132812 1.519531 0.851562 1.519531 C 0.851562 1.164062 0.851562 0.804688 0.851562 0.4375 Z M 0.851562 0.4375 "/>
<path style=" stroke:none;fill-rule:nonzero;fill:rgb(61.176471%,61.176471%,61.176471%);fill-opacity:1;" d="M 0.835938 0.429688 C 1.269531 0.429688 1.703125 0.429688 2.148438 0.429688 C 2.148438 0.792969 2.148438 1.15625 2.148438 1.527344 C 1.714844 1.527344 1.28125 1.527344 0.835938 1.527344 C 0.835938 1.164062 0.835938 0.804688 0.835938 0.429688 Z M 0.851562 0.4375 C 0.851562 0.796875 0.851562 1.152344 0.851562 1.519531 C 1.125 1.519531 1.398438 1.519531 1.683594 1.519531 C 1.683594 1.164062 1.683594 0.804688 1.683594 0.4375 C 1.410156 0.4375 1.132812 0.4375 0.851562 0.4375 Z M 0.851562 0.4375 "/>
<path style=" stroke:none;fill-rule:nonzero;fill:rgb(94.901961%,94.901961%,94.117647%);fill-opacity:1;" d="M 3.0625 1.214844 C 3.070312 1.214844 3.082031 1.214844 3.09375 1.214844 C 3.097656 1.214844 3.101562 1.214844 3.109375 1.214844 C 3.125 1.214844 3.144531 1.214844 3.164062 1.214844 C 3.226562 1.214844 3.226562 1.214844 3.289062 1.214844 C 3.289062 1.328125 3.289062 1.445312 3.289062 1.5625 C 3.203125 1.5625 3.117188 1.5625 3.03125 1.5625 C 3.027344 1.511719 3.027344 1.464844 3.027344 1.417969 C 3.027344 1.402344 3.027344 1.386719 3.027344 1.367188 C 3.027344 1.34375 3.027344 1.320312 3.027344 1.296875 C 3.027344 1.289062 3.027344 1.285156 3.027344 1.277344 C 3.027344 1.257812 3.027344 1.242188 3.03125 1.222656 C 3.039062 1.214844 3.039062 1.214844 3.0625 1.214844 Z M 3.0625 1.214844 "/>
<path style=" stroke:none;fill-rule:nonzero;fill:rgb(96.470588%,96.470588%,95.686275%);fill-opacity:1;" d="M 5.890625 1.214844 C 5.976562 1.214844 6.058594 1.214844 6.144531 1.214844 C 6.144531 1.328125 6.144531 1.445312 6.144531 1.5625 C 6.058594 1.5625 5.976562 1.5625 5.890625 1.5625 C 5.890625 1.445312 5.890625 1.332031 5.890625 1.214844 Z M 5.890625 1.214844 "/>
<path style=" stroke:none;fill-rule:nonzero;fill:rgb(96.470588%,96.470588%,95.686275%);fill-opacity:1;" d="M 4.75 1.214844 C 4.832031 1.214844 4.914062 1.214844 5 1.214844 C 5 1.328125 5 1.445312 5 1.5625 C 4.917969 1.5625 4.835938 1.5625 4.75 1.5625 C 4.75 1.445312 4.75 1.332031 4.75 1.214844 Z M 4.75 1.214844 "/>
<path style=" stroke:none;fill-rule:nonzero;fill:rgb(96.862745%,96.862745%,96.078431%);fill-opacity:1;" d="M 4.179688 1.214844 C 4.261719 1.214844 4.34375 1.214844 4.429688 1.214844 C 4.429688 1.328125 4.429688 1.445312 4.429688 1.5625 C 4.347656 1.5625 4.265625 1.5625 4.179688 1.5625 C 4.179688 1.445312 4.179688 1.332031 4.179688 1.214844 Z M 4.179688 1.214844 "/>
<path style=" stroke:none;fill-rule:nonzero;fill:rgb(96.470588%,96.470588%,95.686275%);fill-opacity:1;" d="M 3.609375 1.214844 C 3.691406 1.214844 3.773438 1.214844 3.859375 1.214844 C 3.859375 1.328125 3.859375 1.445312 3.859375 1.5625 C 3.777344 1.5625 3.695312 1.5625 3.609375 1.5625 C 3.609375 1.445312 3.609375 1.332031 3.609375 1.214844 Z M 3.609375 1.214844 "/>
<path style=" stroke:none;fill-rule:nonzero;fill:rgb(96.862745%,96.862745%,96.470588%);fill-opacity:1;" d="M 2.464844 1.214844 C 2.550781 1.214844 2.632812 1.214844 2.71875 1.214844 C 2.71875 1.328125 2.71875 1.445312 2.71875 1.5625 C 2.632812 1.5625 2.550781 1.5625 2.464844 1.5625 C 2.464844 1.445312 2.464844 1.332031 2.464844 1.214844 Z M 2.464844 1.214844 "/>
<path style=" stroke:none;fill-rule:nonzero;fill:rgb(97.254902%,97.254902%,96.862745%);fill-opacity:1;" d="M 5.320312 1.222656 C 5.402344 1.222656 5.488281 1.222656 5.570312 1.222656 C 5.570312 1.335938 5.570312 1.445312 5.570312 1.5625 C 5.488281 1.5625 5.40625 1.5625 5.320312 1.5625 C 5.320312 1.449219 5.320312 1.339844 5.320312 1.222656 Z M 5.320312 1.222656 "/>
<path style=" stroke:none;fill-rule:nonzero;fill:rgb(97.254902%,97.254902%,96.470588%);fill-opacity:1;" d="M 6.460938 1.011719 C 6.546875 1.011719 6.628906 1.011719 6.714844 1.011719 C 6.714844 1.125 6.714844 1.234375 6.714844 1.351562 C 6.632812 1.351562 6.546875 1.351562 6.460938 1.351562 C 6.460938 1.238281 6.460938 1.128906 6.460938 1.011719 Z M 6.460938 1.011719 "/>
<path style=" stroke:none;fill-rule:nonzero;fill:rgb(96.862745%,96.862745%,96.470588%);fill-opacity:1;" d="M 5.890625 0.808594 C 5.976562 0.808594 6.058594 0.808594 6.144531 0.808594 C 6.144531 0.921875 6.144531 1.03125 6.144531 1.148438 C 6.058594 1.148438 5.976562 1.148438 5.890625 1.148438 C 5.890625 1.035156 5.890625 0.925781 5.890625 0.808594 Z M 5.890625 0.808594 "/>
<path style=" stroke:none;fill-rule:nonzero;fill:rgb(96.862745%,96.862745%,96.470588%);fill-opacity:1;" d="M 5.320312 0.808594 C 5.402344 0.808594 5.488281 0.808594 5.570312 0.808594 C 5.570312 0.921875 5.570312 1.03125 5.570312 1.148438 C 5.488281 1.148438 5.40625 1.148438 5.320312 1.148438 C 5.320312 1.035156 5.320312 0.925781 5.320312 0.808594 Z M 5.320312 0.808594 "/>
<path style=" stroke:none;fill-rule:nonzero;fill:rgb(96.862745%,96.862745%,96.470588%);fill-opacity:1;" d="M 5.039062 0.808594 C 5.121094 0.808594 5.203125 0.808594 5.289062 0.808594 C 5.289062 0.921875 5.289062 1.03125 5.289062 1.148438 C 5.207031 1.148438 5.125 1.148438 5.039062 1.148438 C 5.039062 1.035156 5.039062 0.925781 5.039062 0.808594 Z M 5.039062 0.808594 "/>
<path style=" stroke:none;fill-rule:nonzero;fill:rgb(96.862745%,96.862745%,96.470588%);fill-opacity:1;" d="M 4.75 0.808594 C 4.832031 0.808594 4.914062 0.808594 5 0.808594 C 5 0.921875 5 1.03125 5 1.148438 C 4.917969 1.148438 4.835938 1.148438 4.75 1.148438 C 4.75 1.035156 4.75 0.925781 4.75 0.808594 Z M 4.75 0.808594 "/>
<path style=" stroke:none;fill-rule:nonzero;fill:rgb(97.254902%,97.254902%,96.862745%);fill-opacity:1;" d="M 4.179688 0.808594 C 4.261719 0.808594 4.34375 0.808594 4.429688 0.808594 C 4.429688 0.921875 4.429688 1.03125 4.429688 1.148438 C 4.347656 1.148438 4.265625 1.148438 4.179688 1.148438 C 4.179688 1.035156 4.179688 0.925781 4.179688 0.808594 Z M 4.179688 0.808594 "/>
<path style=" stroke:none;fill-rule:nonzero;fill:rgb(96.862745%,96.862745%,96.470588%);fill-opacity:1;" d="M 3.609375 0.808594 C 3.691406 0.808594 3.773438 0.808594 3.859375 0.808594 C 3.859375 0.921875 3.859375 1.03125 3.859375 1.148438 C 3.777344 1.148438 3.695312 1.148438 3.609375 1.148438 C 3.609375 1.035156 3.609375 0.925781 3.609375 0.808594 Z M 3.609375 0.808594 "/>
<path style=" stroke:none;fill-rule:nonzero;fill:rgb(97.254902%,97.254902%,96.862745%);fill-opacity:1;" d="M 2.464844 0.808594 C 2.550781 0.808594 2.632812 0.808594 2.71875 0.808594 C 2.71875 0.921875 2.71875 1.03125 2.71875 1.148438 C 2.632812 1.148438 2.550781 1.148438 2.464844 1.148438 C 2.464844 1.035156 2.464844 0.925781 2.464844 0.808594 Z M 2.464844 0.808594 "/>
<path style=" stroke:none;fill-rule:nonzero;fill:rgb(97.254902%,97.254902%,96.862745%);fill-opacity:1;" d="M 5.890625 0.398438 C 5.976562 0.398438 6.058594 0.398438 6.144531 0.398438 C 6.144531 0.507812 6.144531 0.621094 6.144531 0.734375 C 6.058594 0.734375 5.976562 0.734375 5.890625 0.734375 C 5.890625 0.621094 5.890625 0.511719 5.890625 0.398438 Z M 5.890625 0.398438 "/>
<path style=" stroke:none;fill-rule:nonzero;fill:rgb(97.254902%,97.254902%,96.470588%);fill-opacity:1;" d="M 5.320312 0.398438 C 5.402344 0.398438 5.488281 0.398438 5.570312 0.398438 C 5.570312 0.507812 5.570312 0.621094 5.570312 0.734375 C 5.488281 0.734375 5.40625 0.734375 5.320312 0.734375 C 5.320312 0.621094 5.320312 0.511719 5.320312 0.398438 Z M 5.320312 0.398438 "/>
<path style=" stroke:none;fill-rule:nonzero;fill:rgb(97.254902%,97.254902%,96.862745%);fill-opacity:1;" d="M 5.039062 0.398438 C 5.121094 0.398438 5.203125 0.398438 5.289062 0.398438 C 5.289062 0.507812 5.289062 0.621094 5.289062 0.734375 C 5.207031 0.734375 5.125 0.734375 5.039062 0.734375 C 5.039062 0.621094 5.039062 0.511719 5.039062 0.398438 Z M 5.039062 0.398438 "/>
<path style=" stroke:none;fill-rule:nonzero;fill:rgb(97.254902%,97.254902%,96.862745%);fill-opacity:1;" d="M 4.75 0.398438 C 4.832031 0.398438 4.914062 0.398438 5 0.398438 C 5 0.507812 5 0.621094 5 0.734375 C 4.917969 0.734375 4.835938 0.734375 4.75 0.734375 C 4.75 0.621094 4.75 0.511719 4.75 0.398438 Z M 4.75 0.398438 "/>
<path style=" stroke:none;fill-rule:nonzero;fill:rgb(97.647059%,97.647059%,96.862745%);fill-opacity:1;" d="M 4.179688 0.398438 C 4.261719 0.398438 4.34375 0.398438 4.429688 0.398438 C 4.429688 0.507812 4.429688 0.621094 4.429688 0.734375 C 4.347656 0.734375 4.265625 0.734375 4.179688 0.734375 C 4.179688 0.621094 4.179688 0.511719 4.179688 0.398438 Z M 4.179688 0.398438 "/>
<path style=" stroke:none;fill-rule:nonzero;fill:rgb(96.862745%,96.862745%,96.078431%);fill-opacity:1;" d="M 3.898438 0.398438 C 3.980469 0.398438 4.0625 0.398438 4.148438 0.398438 C 4.148438 0.507812 4.148438 0.621094 4.148438 0.734375 C 4.066406 0.734375 3.984375 0.734375 3.898438 0.734375 C 3.898438 0.621094 3.898438 0.511719 3.898438 0.398438 Z M 3.898438 0.398438 "/>
<path style=" stroke:none;fill-rule:nonzero;fill:rgb(97.254902%,97.254902%,96.862745%);fill-opacity:1;" d="M 3.609375 0.398438 C 3.691406 0.398438 3.773438 0.398438 3.859375 0.398438 C 3.859375 0.507812 3.859375 0.621094 3.859375 0.734375 C 3.777344 0.734375 3.695312 0.734375 3.609375 0.734375 C 3.609375 0.621094 3.609375 0.511719 3.609375 0.398438 Z M 3.609375 0.398438 "/>
<path style=" stroke:none;fill-rule:nonzero;fill:rgb(96.862745%,96.862745%,96.470588%);fill-opacity:1;" d="M 3.320312 0.398438 C 3.402344 0.398438 3.484375 0.398438 3.570312 0.398438 C 3.570312 0.507812 3.570312 0.621094 3.570312 0.734375 C 3.488281 0.734375 3.402344 0.734375 3.320312 0.734375 C 3.320312 0.621094 3.320312 0.511719 3.320312 0.398438 Z M 3.320312 0.398438 "/>
<path style=" stroke:none;fill-rule:nonzero;fill:rgb(96.862745%,96.862745%,96.470588%);fill-opacity:1;" d="M 3.039062 0.398438 C 3.121094 0.398438 3.203125 0.398438 3.289062 0.398438 C 3.289062 0.507812 3.289062 0.621094 3.289062 0.734375 C 3.207031 0.734375 3.121094 0.734375 3.039062 0.734375 C 3.039062 0.621094 3.039062 0.511719 3.039062 0.398438 Z M 3.039062 0.398438 "/>
<path style=" stroke:none;fill-rule:nonzero;fill:rgb(97.254902%,96.862745%,96.470588%);fill-opacity:1;" d="M 2.757812 0.398438 C 2.839844 0.398438 2.921875 0.398438 3.007812 0.398438 C 3.007812 0.507812 3.007812 0.621094 3.007812 0.734375 C 2.925781 0.734375 2.839844 0.734375 2.757812 0.734375 C 2.757812 0.621094 2.757812 0.511719 2.757812 0.398438 Z M 2.757812 0.398438 "/>
<path style=" stroke:none;fill-rule:nonzero;fill:rgb(97.647059%,97.647059%,97.254902%);fill-opacity:1;" d="M 2.464844 0.398438 C 2.550781 0.398438 2.632812 0.398438 2.71875 0.398438 C 2.71875 0.507812 2.71875 0.621094 2.71875 0.734375 C 2.632812 0.734375 2.550781 0.734375 2.464844 0.734375 C 2.464844 0.621094 2.464844 0.511719 2.464844 0.398438 Z M 2.464844 0.398438 "/>
<path style=" stroke:none;fill-rule:nonzero;fill:rgb(98.039216%,98.039216%,97.647059%);fill-opacity:1;" d="M 5.609375 0.398438 C 5.691406 0.398438 5.769531 0.398438 5.851562 0.398438 C 5.851562 0.507812 5.851562 0.621094 5.851562 0.734375 C 5.773438 0.734375 5.691406 0.734375 5.609375 0.734375 C 5.609375 0.621094 5.609375 0.511719 5.609375 0.398438 Z M 5.609375 0.398438 "/>
<path style=" stroke:none;fill-rule:nonzero;fill:rgb(99.607843%,99.607843%,98.823529%);fill-opacity:1;" d="M 6.179688 1.222656 C 6.261719 1.222656 6.339844 1.222656 6.425781 1.222656 C 6.425781 1.332031 6.425781 1.441406 6.425781 1.554688 C 6.34375 1.554688 6.261719 1.554688 6.179688 1.554688 C 6.179688 1.445312 6.179688 1.335938 6.179688 1.222656 Z M 6.179688 1.222656 "/>
<path style=" stroke:none;fill-rule:nonzero;fill:rgb(98.823529%,98.823529%,98.431373%);fill-opacity:1;" d="M 5.609375 1.222656 C 5.691406 1.222656 5.769531 1.222656 5.851562 1.222656 C 5.851562 1.332031 5.851562 1.441406 5.851562 1.554688 C 5.773438 1.554688 5.691406 1.554688 5.609375 1.554688 C 5.609375 1.445312 5.609375 1.335938 5.609375 1.222656 Z M 5.609375 1.222656 "/>
<path style=" stroke:none;fill-rule:nonzero;fill:rgb(98.823529%,98.823529%,98.431373%);fill-opacity:1;" d="M 5.039062 1.222656 C 5.117188 1.222656 5.199219 1.222656 5.28125 1.222656 C 5.28125 1.332031 5.28125 1.441406 5.28125 1.554688 C 5.203125 1.554688 5.121094 1.554688 5.039062 1.554688 C 5.039062 1.445312 5.039062 1.335938 5.039062 1.222656 Z M 5.039062 1.222656 "/>
<path style=" stroke:none;fill-rule:nonzero;fill:rgb(99.215686%,99.215686%,98.823529%);fill-opacity:1;" d="M 4.46875 1.222656 C 4.546875 1.222656 4.628906 1.222656 4.710938 1.222656 C 4.710938 1.332031 4.710938 1.441406 4.710938 1.554688 C 4.632812 1.554688 4.550781 1.554688 4.46875 1.554688 C 4.46875 1.445312 4.46875 1.335938 4.46875 1.222656 Z M 4.46875 1.222656 "/>
<path style=" stroke:none;fill-rule:nonzero;fill:rgb(99.215686%,99.215686%,98.431373%);fill-opacity:1;" d="M 3.898438 1.222656 C 3.976562 1.222656 4.058594 1.222656 4.140625 1.222656 C 4.140625 1.332031 4.140625 1.441406 4.140625 1.554688 C 4.058594 1.554688 3.980469 1.554688 3.898438 1.554688 C 3.898438 1.445312 3.898438 1.335938 3.898438 1.222656 Z M 3.898438 1.222656 "/>
<path style=" stroke:none;fill-rule:nonzero;fill:rgb(98.823529%,98.823529%,98.431373%);fill-opacity:1;" d="M 3.328125 1.222656 C 3.40625 1.222656 3.488281 1.222656 3.570312 1.222656 C 3.570312 1.332031 3.570312 1.441406 3.570312 1.554688 C 3.488281 1.554688 3.410156 1.554688 3.328125 1.554688 C 3.328125 1.445312 3.328125 1.335938 3.328125 1.222656 Z M 3.328125 1.222656 "/>
<path style=" stroke:none;fill-rule:nonzero;fill:rgb(99.215686%,99.215686%,98.431373%);fill-opacity:1;" d="M 2.757812 1.222656 C 2.835938 1.222656 2.914062 1.222656 3 1.222656 C 3 1.332031 3 1.441406 3 1.554688 C 2.917969 1.554688 2.835938 1.554688 2.757812 1.554688 C 2.757812 1.445312 2.757812 1.335938 2.757812 1.222656 Z M 2.757812 1.222656 "/>
<path style=" stroke:none;fill-rule:nonzero;fill:rgb(98.823529%,98.823529%,98.431373%);fill-opacity:1;" d="M 6.75 1.019531 C 6.832031 1.019531 6.914062 1.019531 6.996094 1.019531 C 6.996094 1.128906 6.996094 1.238281 6.996094 1.351562 C 6.914062 1.351562 6.835938 1.351562 6.75 1.351562 C 6.75 1.242188 6.75 1.132812 6.75 1.019531 Z M 6.75 1.019531 "/>
<path style=" stroke:none;fill-rule:nonzero;fill:rgb(98.823529%,98.823529%,98.431373%);fill-opacity:1;" d="M 6.179688 0.808594 C 6.261719 0.808594 6.339844 0.808594 6.425781 0.808594 C 6.425781 0.917969 6.425781 1.027344 6.425781 1.140625 C 6.34375 1.140625 6.261719 1.140625 6.179688 1.140625 C 6.179688 1.03125 6.179688 0.921875 6.179688 0.808594 Z M 6.179688 0.808594 "/>
<path style=" stroke:none;fill-rule:nonzero;fill:rgb(98.431373%,98.431373%,98.039216%);fill-opacity:1;" d="M 5.609375 0.808594 C 5.691406 0.808594 5.769531 0.808594 5.851562 0.808594 C 5.851562 0.917969 5.851562 1.027344 5.851562 1.140625 C 5.773438 1.140625 5.691406 1.140625 5.609375 1.140625 C 5.609375 1.03125 5.609375 0.921875 5.609375 0.808594 Z M 5.609375 0.808594 "/>
<path style=" stroke:none;fill-rule:nonzero;fill:rgb(98.823529%,98.823529%,98.431373%);fill-opacity:1;" d="M 4.46875 0.808594 C 4.546875 0.808594 4.628906 0.808594 4.710938 0.808594 C 4.710938 0.917969 4.710938 1.027344 4.710938 1.140625 C 4.632812 1.140625 4.550781 1.140625 4.46875 1.140625 C 4.46875 1.03125 4.46875 0.921875 4.46875 0.808594 Z M 4.46875 0.808594 "/>
<path style=" stroke:none;fill-rule:nonzero;fill:rgb(98.431373%,98.823529%,98.039216%);fill-opacity:1;" d="M 3.898438 0.808594 C 3.976562 0.808594 4.058594 0.808594 4.140625 0.808594 C 4.140625 0.917969 4.140625 1.027344 4.140625 1.140625 C 4.058594 1.140625 3.980469 1.140625 3.898438 1.140625 C 3.898438 1.03125 3.898438 0.921875 3.898438 0.808594 Z M 3.898438 0.808594 "/>
<path style=" stroke:none;fill-rule:nonzero;fill:rgb(98.431373%,98.431373%,98.431373%);fill-opacity:1;" d="M 3.328125 0.808594 C 3.40625 0.808594 3.488281 0.808594 3.570312 0.808594 C 3.570312 0.917969 3.570312 1.027344 3.570312 1.140625 C 3.488281 1.140625 3.410156 1.140625 3.328125 1.140625 C 3.328125 1.03125 3.328125 0.921875 3.328125 0.808594 Z M 3.328125 0.808594 "/>
<path style=" stroke:none;fill-rule:nonzero;fill:rgb(98.039216%,98.431373%,98.039216%);fill-opacity:1;" d="M 3.039062 0.808594 C 3.117188 0.808594 3.199219 0.808594 3.28125 0.808594 C 3.28125 0.917969 3.28125 1.027344 3.28125 1.140625 C 3.199219 1.140625 3.121094 1.140625 3.039062 1.140625 C 3.039062 1.03125 3.039062 0.921875 3.039062 0.808594 Z M 3.039062 0.808594 "/>
<path style=" stroke:none;fill-rule:nonzero;fill:rgb(98.431373%,98.431373%,98.039216%);fill-opacity:1;" d="M 2.757812 0.808594 C 2.835938 0.808594 2.914062 0.808594 3 0.808594 C 3 0.917969 3 1.027344 3 1.140625 C 2.917969 1.140625 2.835938 1.140625 2.757812 1.140625 C 2.757812 1.03125 2.757812 0.921875 2.757812 0.808594 Z M 2.757812 0.808594 "/>
<path style=" stroke:none;fill-rule:nonzero;fill:rgb(98.823529%,98.823529%,98.431373%);fill-opacity:1;" d="M 6.75 0.609375 C 6.832031 0.609375 6.914062 0.609375 6.996094 0.609375 C 6.996094 0.714844 6.996094 0.824219 6.996094 0.9375 C 6.914062 0.9375 6.835938 0.9375 6.75 0.9375 C 6.75 0.828125 6.75 0.71875 6.75 0.609375 Z M 6.75 0.609375 "/>
<path style=" stroke:none;fill-rule:nonzero;fill:rgb(98.823529%,98.823529%,98.431373%);fill-opacity:1;" d="M 6.46875 0.609375 C 6.550781 0.609375 6.632812 0.609375 6.714844 0.609375 C 6.714844 0.714844 6.714844 0.824219 6.714844 0.9375 C 6.632812 0.9375 6.554688 0.9375 6.46875 0.9375 C 6.46875 0.828125 6.46875 0.71875 6.46875 0.609375 Z M 6.46875 0.609375 "/>
<path style=" stroke:none;fill-rule:nonzero;fill:rgb(98.823529%,98.823529%,98.431373%);fill-opacity:1;" d="M 4.46875 0.398438 C 4.546875 0.398438 4.628906 0.398438 4.710938 0.398438 C 4.710938 0.503906 4.710938 0.613281 4.710938 0.726562 C 4.632812 0.726562 4.550781 0.726562 4.46875 0.726562 C 4.46875 0.617188 4.46875 0.507812 4.46875 0.398438 Z M 4.46875 0.398438 "/>
<path style=" stroke:none;fill-rule:nonzero;fill:rgb(99.607843%,99.215686%,99.215686%);fill-opacity:1;" d="M 6.179688 0.40625 C 6.261719 0.40625 6.339844 0.40625 6.425781 0.40625 C 6.425781 0.511719 6.425781 0.617188 6.425781 0.726562 C 6.34375 0.726562 6.261719 0.726562 6.179688 0.726562 C 6.179688 0.621094 6.179688 0.515625 6.179688 0.40625 Z M 6.179688 0.40625 "/>
</g>
</svg>
