<?xml version="1.0" encoding="UTF-8"?>
<svg xmlns="http://www.w3.org/2000/svg" xmlns:xlink="http://www.w3.org/1999/xlink" width="263px" height="59px" viewBox="0 0 261 59" version="1.1">
<g id="surface1">
<path style=" stroke:none;fill-rule:nonzero;fill:#8db600;fill-opacity:1;" d="M 36.660156 8.363281 C 37.628906 8.367188 38.597656 8.363281 39.566406 8.363281 C 41.261719 8.359375 42.957031 8.355469 44.652344 8.359375 C 47.171875 8.359375 49.695312 8.359375 52.214844 8.355469 C 56.980469 8.347656 61.746094 8.347656 66.511719 8.347656 C 70.195312 8.347656 73.875 8.347656 77.554688 8.34375 C 78.085938 8.34375 78.617188 8.34375 79.144531 8.34375 C 79.40625 8.34375 79.671875 8.34375 79.941406 8.34375 C 80.335938 8.34375 80.335938 8.34375 80.738281 8.34375 C 81.136719 8.34375 81.136719 8.34375 81.539062 8.34375 C 88.957031 8.339844 96.371094 8.335938 103.789062 8.339844 C 104.070312 8.339844 104.347656 8.339844 104.636719 8.339844 C 106.050781 8.339844 107.46875 8.339844 108.882812 8.339844 C 109.304688 8.339844 109.304688 8.339844 109.738281 8.339844 C 110.304688 8.339844 110.875 8.339844 111.441406 8.339844 C 120.289062 8.339844 129.136719 8.335938 137.984375 8.328125 C 147.929688 8.320312 157.878906 8.316406 167.824219 8.316406 C 168.886719 8.316406 169.949219 8.316406 171.007812 8.316406 C 171.269531 8.316406 171.53125 8.316406 171.800781 8.316406 C 175.738281 8.316406 179.675781 8.3125 183.617188 8.308594 C 188.097656 8.304688 192.578125 8.304688 197.0625 8.308594 C 199.566406 8.3125 202.070312 8.308594 204.574219 8.304688 C 206.253906 8.300781 207.929688 8.300781 209.605469 8.304688 C 210.558594 8.308594 211.511719 8.308594 212.464844 8.304688 C 217.984375 8.277344 223.421875 8.664062 228.59375 10.765625 C 228.835938 10.863281 229.078125 10.957031 229.328125 11.054688 C 231.378906 11.875 233.320312 12.851562 235.238281 13.945312 C 235.84375 14.289062 236.464844 14.601562 237.082031 14.921875 C 242.28125 17.792969 246.980469 22.121094 251.066406 26.386719 C 251.222656 26.546875 251.375 26.707031 251.535156 26.871094 C 251.671875 27.019531 251.808594 27.167969 251.953125 27.320312 C 252.070312 27.449219 252.1875 27.574219 252.308594 27.707031 C 252.667969 28.324219 252.675781 28.667969 252.554688 29.375 C 252.058594 30.050781 252.058594 30.050781 251.390625 30.746094 C 251.070312 31.085938 251.070312 31.085938 250.738281 31.4375 C 250.105469 32.082031 249.46875 32.71875 248.832031 33.359375 C 248.625 33.570312 248.421875 33.78125 248.207031 34 C 246.679688 35.566406 245.101562 36.996094 243.367188 38.335938 C 243.234375 38.441406 243.101562 38.546875 242.964844 38.652344 C 234.335938 45.351562 224.769531 49.109375 213.84375 49.121094 C 213.300781 49.125 212.757812 49.125 212.210938 49.128906 C 210.730469 49.136719 209.25 49.140625 207.769531 49.144531 C 206.175781 49.148438 204.582031 49.152344 202.988281 49.160156 C 200.277344 49.171875 197.566406 49.179688 194.855469 49.1875 C 191.179688 49.195312 187.503906 49.210938 183.828125 49.222656 C 165.144531 49.292969 146.460938 49.308594 120.691406 49.292969 C 120.464844 49.289062 120.242188 49.289062 120.007812 49.289062 C 107.335938 49.277344 94.660156 49.261719 81.984375 49.234375 C 80.96875 49.230469 79.953125 49.226562 78.933594 49.226562 C 78.554688 49.226562 78.554688 49.226562 78.171875 49.222656 C 73.996094 49.214844 69.820312 49.210938 65.648438 49.203125 C 61.28125 49.199219 56.910156 49.191406 52.542969 49.179688 C 49.886719 49.171875 47.230469 49.167969 44.574219 49.167969 C 42.777344 49.164062 40.980469 49.160156 39.183594 49.15625 C 38.152344 49.152344 37.121094 49.148438 36.089844 49.152344 C 35.144531 49.152344 34.199219 49.148438 33.253906 49.144531 C 32.757812 49.140625 32.257812 49.144531 31.761719 49.144531 C 28.835938 49.121094 25.988281 48.644531 23.234375 47.625 C 23.058594 47.5625 22.886719 47.5 22.707031 47.433594 C 20.773438 46.707031 18.953125 45.785156 17.136719 44.808594 C 16.945312 44.710938 16.757812 44.609375 16.5625 44.507812 C 10.695312 41.378906 10.695312 41.378906 10.183594 39.832031 C 10.15625 39.128906 10.144531 38.433594 10.140625 37.730469 C 10.140625 37.519531 10.140625 37.304688 10.136719 37.082031 C 10.132812 36.375 10.132812 35.664062 10.132812 34.957031 C 10.128906 34.460938 10.128906 33.96875 10.128906 33.476562 C 10.125 32.445312 10.121094 31.410156 10.121094 30.378906 C 10.121094 29.054688 10.113281 27.730469 10.109375 26.40625 C 10.101562 25.386719 10.101562 24.371094 10.101562 23.351562 C 10.101562 22.863281 10.097656 22.375 10.09375 21.886719 C 10.089844 21.203125 10.089844 20.519531 10.09375 19.839844 C 10.089844 19.636719 10.089844 19.433594 10.085938 19.226562 C 10.09375 18.082031 10.214844 17.339844 10.925781 16.429688 C 18.4375 10.398438 27.296875 8.34375 36.660156 8.363281 Z M 36.660156 8.363281 "/>
<path style=" stroke:none;fill-rule:nonzero;fill:rgb(74.509804%,74.509804%,74.509804%);fill-opacity:1;" d="M 27.8125 12.945312 C 36.746094 12.945312 45.679688 12.945312 54.882812 12.945312 C 54.882812 23.460938 54.882812 33.976562 54.882812 44.808594 C 45.949219 44.808594 37.015625 44.808594 27.8125 44.808594 C 27.8125 34.292969 27.8125 23.777344 27.8125 12.945312 Z M 27.8125 12.945312 "/>
<path style=" stroke:none;fill-rule:nonzero;fill:rgb(61.176471%,61.176471%,61.176471%);fill-opacity:1;" d="M 27.316406 12.695312 C 41.414062 12.695312 55.507812 12.695312 70.03125 12.695312 C 70.03125 23.375 70.03125 34.054688 70.03125 45.058594 C 55.933594 45.058594 41.839844 45.058594 27.316406 45.058594 C 27.316406 34.378906 27.316406 23.699219 27.316406 12.695312 Z M 27.8125 12.945312 C 27.8125 23.460938 27.8125 33.976562 27.8125 44.808594 C 36.746094 44.808594 45.679688 44.808594 54.882812 44.808594 C 54.882812 34.292969 54.882812 23.777344 54.882812 12.945312 C 45.949219 12.945312 37.015625 12.945312 27.8125 12.945312 Z M 27.8125 12.945312 "/>
<path style=" stroke:none;fill-rule:nonzero;fill:rgb(94.901961%,94.901961%,94.117647%);fill-opacity:1;" d="M 99.867188 35.820312 C 100.210938 35.820312 100.558594 35.820312 100.902344 35.824219 C 101.0625 35.824219 101.222656 35.824219 101.390625 35.824219 C 101.992188 35.824219 102.597656 35.828125 103.199219 35.832031 C 105.21875 35.839844 105.21875 35.839844 107.28125 35.847656 C 107.28125 39.214844 107.28125 42.585938 107.28125 46.054688 C 104.496094 46.054688 101.707031 46.054688 98.835938 46.054688 C 98.832031 44.640625 98.828125 43.226562 98.824219 41.8125 C 98.824219 41.332031 98.820312 40.851562 98.820312 40.371094 C 98.816406 39.679688 98.8125 38.988281 98.8125 38.300781 C 98.8125 38.082031 98.808594 37.867188 98.808594 37.644531 C 98.808594 37.128906 98.820312 36.613281 98.835938 36.097656 C 99.085938 35.847656 99.085938 35.847656 99.867188 35.820312 Z M 99.867188 35.820312 "/>
<path style=" stroke:none;fill-rule:nonzero;fill:rgb(96.470588%,96.470588%,95.686275%);fill-opacity:1;" d="M 192.210938 35.847656 C 194.914062 35.847656 197.621094 35.847656 200.40625 35.847656 C 200.40625 39.214844 200.40625 42.585938 200.40625 46.054688 C 197.703125 46.054688 194.996094 46.054688 192.210938 46.054688 C 192.210938 42.6875 192.210938 39.320312 192.210938 35.847656 Z M 192.210938 35.847656 "/>
<path style=" stroke:none;fill-rule:nonzero;fill:rgb(96.470588%,96.470588%,95.686275%);fill-opacity:1;" d="M 154.960938 35.847656 C 157.664062 35.847656 160.371094 35.847656 163.15625 35.847656 C 163.15625 39.214844 163.15625 42.585938 163.15625 46.054688 C 160.453125 46.054688 157.746094 46.054688 154.960938 46.054688 C 154.960938 42.6875 154.960938 39.320312 154.960938 35.847656 Z M 154.960938 35.847656 "/>
<path style=" stroke:none;fill-rule:nonzero;fill:rgb(96.862745%,96.862745%,96.078431%);fill-opacity:1;" d="M 136.335938 35.847656 C 139.039062 35.847656 141.746094 35.847656 144.53125 35.847656 C 144.53125 39.214844 144.53125 42.585938 144.53125 46.054688 C 141.828125 46.054688 139.121094 46.054688 136.335938 46.054688 C 136.335938 42.6875 136.335938 39.320312 136.335938 35.847656 Z M 136.335938 35.847656 "/>
<path style=" stroke:none;fill-rule:nonzero;fill:rgb(96.470588%,96.470588%,95.686275%);fill-opacity:1;" d="M 117.710938 35.847656 C 120.414062 35.847656 123.121094 35.847656 125.90625 35.847656 C 125.90625 39.214844 125.90625 42.585938 125.90625 46.054688 C 123.203125 46.054688 120.496094 46.054688 117.710938 46.054688 C 117.710938 42.6875 117.710938 39.320312 117.710938 35.847656 Z M 117.710938 35.847656 "/>
<path style=" stroke:none;fill-rule:nonzero;fill:rgb(96.862745%,96.862745%,96.470588%);fill-opacity:1;" d="M 80.460938 35.847656 C 83.164062 35.847656 85.871094 35.847656 88.65625 35.847656 C 88.65625 39.214844 88.65625 42.585938 88.65625 46.054688 C 85.953125 46.054688 83.246094 46.054688 80.460938 46.054688 C 80.460938 42.6875 80.460938 39.320312 80.460938 35.847656 Z M 80.460938 35.847656 "/>
<path style=" stroke:none;fill-rule:nonzero;fill:rgb(97.254902%,97.254902%,96.862745%);fill-opacity:1;" d="M 173.585938 36.097656 C 176.289062 36.097656 178.996094 36.097656 181.78125 36.097656 C 181.78125 39.382812 181.78125 42.667969 181.78125 46.054688 C 179.078125 46.054688 176.371094 46.054688 173.585938 46.054688 C 173.585938 42.769531 173.585938 39.484375 173.585938 36.097656 Z M 173.585938 36.097656 "/>
<path style=" stroke:none;fill-rule:nonzero;fill:rgb(97.254902%,97.254902%,96.470588%);fill-opacity:1;" d="M 210.835938 29.875 C 213.539062 29.875 216.246094 29.875 219.03125 29.875 C 219.03125 33.160156 219.03125 36.445312 219.03125 39.832031 C 216.328125 39.832031 213.621094 39.832031 210.835938 39.832031 C 210.835938 36.546875 210.835938 33.257812 210.835938 29.875 Z M 210.835938 29.875 "/>
<path style=" stroke:none;fill-rule:nonzero;fill:rgb(96.862745%,96.862745%,96.470588%);fill-opacity:1;" d="M 192.210938 23.898438 C 194.914062 23.898438 197.621094 23.898438 200.40625 23.898438 C 200.40625 27.183594 200.40625 30.472656 200.40625 33.855469 C 197.703125 33.855469 194.996094 33.855469 192.210938 33.855469 C 192.210938 30.570312 192.210938 27.285156 192.210938 23.898438 Z M 192.210938 23.898438 "/>
<path style=" stroke:none;fill-rule:nonzero;fill:rgb(96.862745%,96.862745%,96.470588%);fill-opacity:1;" d="M 173.585938 23.898438 C 176.289062 23.898438 178.996094 23.898438 181.78125 23.898438 C 181.78125 27.183594 181.78125 30.472656 181.78125 33.855469 C 179.078125 33.855469 176.371094 33.855469 173.585938 33.855469 C 173.585938 30.570312 173.585938 27.285156 173.585938 23.898438 Z M 173.585938 23.898438 "/>
<path style=" stroke:none;fill-rule:nonzero;fill:rgb(96.862745%,96.862745%,96.470588%);fill-opacity:1;" d="M 164.398438 23.898438 C 167.101562 23.898438 169.804688 23.898438 172.59375 23.898438 C 172.59375 27.183594 172.59375 30.472656 172.59375 33.855469 C 169.886719 33.855469 167.183594 33.855469 164.398438 33.855469 C 164.398438 30.570312 164.398438 27.285156 164.398438 23.898438 Z M 164.398438 23.898438 "/>
<path style=" stroke:none;fill-rule:nonzero;fill:rgb(96.862745%,96.862745%,96.470588%);fill-opacity:1;" d="M 154.960938 23.898438 C 157.664062 23.898438 160.371094 23.898438 163.15625 23.898438 C 163.15625 27.183594 163.15625 30.472656 163.15625 33.855469 C 160.453125 33.855469 157.746094 33.855469 154.960938 33.855469 C 154.960938 30.570312 154.960938 27.285156 154.960938 23.898438 Z M 154.960938 23.898438 "/>
<path style=" stroke:none;fill-rule:nonzero;fill:rgb(97.254902%,97.254902%,96.862745%);fill-opacity:1;" d="M 136.335938 23.898438 C 139.039062 23.898438 141.746094 23.898438 144.53125 23.898438 C 144.53125 27.183594 144.53125 30.472656 144.53125 33.855469 C 141.828125 33.855469 139.121094 33.855469 136.335938 33.855469 C 136.335938 30.570312 136.335938 27.285156 136.335938 23.898438 Z M 136.335938 23.898438 "/>
<path style=" stroke:none;fill-rule:nonzero;fill:rgb(96.862745%,96.862745%,96.470588%);fill-opacity:1;" d="M 117.710938 23.898438 C 120.414062 23.898438 123.121094 23.898438 125.90625 23.898438 C 125.90625 27.183594 125.90625 30.472656 125.90625 33.855469 C 123.203125 33.855469 120.496094 33.855469 117.710938 33.855469 C 117.710938 30.570312 117.710938 27.285156 117.710938 23.898438 Z M 117.710938 23.898438 "/>
<path style=" stroke:none;fill-rule:nonzero;fill:rgb(97.254902%,97.254902%,96.862745%);fill-opacity:1;" d="M 80.460938 23.898438 C 83.164062 23.898438 85.871094 23.898438 88.65625 23.898438 C 88.65625 27.183594 88.65625 30.472656 88.65625 33.855469 C 85.953125 33.855469 83.246094 33.855469 80.460938 33.855469 C 80.460938 30.570312 80.460938 27.285156 80.460938 23.898438 Z M 80.460938 23.898438 "/>
<path style=" stroke:none;fill-rule:nonzero;fill:rgb(97.254902%,97.254902%,96.862745%);fill-opacity:1;" d="M 192.210938 11.699219 C 194.914062 11.699219 197.621094 11.699219 200.40625 11.699219 C 200.40625 14.988281 200.40625 18.273438 200.40625 21.660156 C 197.703125 21.660156 194.996094 21.660156 192.210938 21.660156 C 192.210938 18.371094 192.210938 15.085938 192.210938 11.699219 Z M 192.210938 11.699219 "/>
<path style=" stroke:none;fill-rule:nonzero;fill:rgb(97.254902%,97.254902%,96.470588%);fill-opacity:1;" d="M 173.585938 11.699219 C 176.289062 11.699219 178.996094 11.699219 181.78125 11.699219 C 181.78125 14.988281 181.78125 18.273438 181.78125 21.660156 C 179.078125 21.660156 176.371094 21.660156 173.585938 21.660156 C 173.585938 18.371094 173.585938 15.085938 173.585938 11.699219 Z M 173.585938 11.699219 "/>
<path style=" stroke:none;fill-rule:nonzero;fill:rgb(97.254902%,97.254902%,96.862745%);fill-opacity:1;" d="M 164.398438 11.699219 C 167.101562 11.699219 169.804688 11.699219 172.59375 11.699219 C 172.59375 14.988281 172.59375 18.273438 172.59375 21.660156 C 169.886719 21.660156 167.183594 21.660156 164.398438 21.660156 C 164.398438 18.371094 164.398438 15.085938 164.398438 11.699219 Z M 164.398438 11.699219 "/>
<path style=" stroke:none;fill-rule:nonzero;fill:rgb(97.254902%,97.254902%,96.862745%);fill-opacity:1;" d="M 154.960938 11.699219 C 157.664062 11.699219 160.371094 11.699219 163.15625 11.699219 C 163.15625 14.988281 163.15625 18.273438 163.15625 21.660156 C 160.453125 21.660156 157.746094 21.660156 154.960938 21.660156 C 154.960938 18.371094 154.960938 15.085938 154.960938 11.699219 Z M 154.960938 11.699219 "/>
<path style=" stroke:none;fill-rule:nonzero;fill:rgb(97.647059%,97.647059%,96.862745%);fill-opacity:1;" d="M 136.335938 11.699219 C 139.039062 11.699219 141.746094 11.699219 144.53125 11.699219 C 144.53125 14.988281 144.53125 18.273438 144.53125 21.660156 C 141.828125 21.660156 139.121094 21.660156 136.335938 21.660156 C 136.335938 18.371094 136.335938 15.085938 136.335938 11.699219 Z M 136.335938 11.699219 "/>
<path style=" stroke:none;fill-rule:nonzero;fill:rgb(96.862745%,96.862745%,96.078431%);fill-opacity:1;" d="M 127.148438 11.699219 C 129.851562 11.699219 132.554688 11.699219 135.34375 11.699219 C 135.34375 14.988281 135.34375 18.273438 135.34375 21.660156 C 132.636719 21.660156 129.933594 21.660156 127.148438 21.660156 C 127.148438 18.371094 127.148438 15.085938 127.148438 11.699219 Z M 127.148438 11.699219 "/>
<path style=" stroke:none;fill-rule:nonzero;fill:rgb(97.254902%,97.254902%,96.862745%);fill-opacity:1;" d="M 117.710938 11.699219 C 120.414062 11.699219 123.121094 11.699219 125.90625 11.699219 C 125.90625 14.988281 125.90625 18.273438 125.90625 21.660156 C 123.203125 21.660156 120.496094 21.660156 117.710938 21.660156 C 117.710938 18.371094 117.710938 15.085938 117.710938 11.699219 Z M 117.710938 11.699219 "/>
<path style=" stroke:none;fill-rule:nonzero;fill:rgb(96.862745%,96.862745%,96.470588%);fill-opacity:1;" d="M 108.273438 11.699219 C 110.976562 11.699219 113.683594 11.699219 116.46875 11.699219 C 116.46875 14.988281 116.46875 18.273438 116.46875 21.660156 C 113.765625 21.660156 111.058594 21.660156 108.273438 21.660156 C 108.273438 18.371094 108.273438 15.085938 108.273438 11.699219 Z M 108.273438 11.699219 "/>
<path style=" stroke:none;fill-rule:nonzero;fill:rgb(96.862745%,96.862745%,96.470588%);fill-opacity:1;" d="M 99.085938 11.699219 C 101.789062 11.699219 104.496094 11.699219 107.28125 11.699219 C 107.28125 14.988281 107.28125 18.273438 107.28125 21.660156 C 104.578125 21.660156 101.871094 21.660156 99.085938 21.660156 C 99.085938 18.371094 99.085938 15.085938 99.085938 11.699219 Z M 99.085938 11.699219 "/>
<path style=" stroke:none;fill-rule:nonzero;fill:rgb(97.254902%,96.862745%,96.470588%);fill-opacity:1;" d="M 89.898438 11.699219 C 92.601562 11.699219 95.304688 11.699219 98.09375 11.699219 C 98.09375 14.988281 98.09375 18.273438 98.09375 21.660156 C 95.386719 21.660156 92.683594 21.660156 89.898438 21.660156 C 89.898438 18.371094 89.898438 15.085938 89.898438 11.699219 Z M 89.898438 11.699219 "/>
<path style=" stroke:none;fill-rule:nonzero;fill:rgb(97.647059%,97.647059%,97.254902%);fill-opacity:1;" d="M 80.460938 11.699219 C 83.164062 11.699219 85.871094 11.699219 88.65625 11.699219 C 88.65625 14.988281 88.65625 18.273438 88.65625 21.660156 C 85.953125 21.660156 83.246094 21.660156 80.460938 21.660156 C 80.460938 18.371094 80.460938 15.085938 80.460938 11.699219 Z M 80.460938 11.699219 "/>
<path style=" stroke:none;fill-rule:nonzero;fill:rgb(98.039216%,98.039216%,97.647059%);fill-opacity:1;" d="M 183.023438 11.699219 C 185.644531 11.699219 188.269531 11.699219 190.96875 11.699219 C 190.96875 14.988281 190.96875 18.273438 190.96875 21.660156 C 188.347656 21.660156 185.726562 21.660156 183.023438 21.660156 C 183.023438 18.371094 183.023438 15.085938 183.023438 11.699219 Z M 183.023438 11.699219 "/>
<path style=" stroke:none;fill-rule:nonzero;fill:rgb(99.607843%,99.607843%,98.823529%);fill-opacity:1;" d="M 201.648438 36.097656 C 204.269531 36.097656 206.894531 36.097656 209.59375 36.097656 C 209.59375 39.300781 209.59375 42.503906 209.59375 45.804688 C 206.972656 45.804688 204.351562 45.804688 201.648438 45.804688 C 201.648438 42.601562 201.648438 39.398438 201.648438 36.097656 Z M 201.648438 36.097656 "/>
<path style=" stroke:none;fill-rule:nonzero;fill:rgb(98.823529%,98.823529%,98.431373%);fill-opacity:1;" d="M 183.023438 36.097656 C 185.644531 36.097656 188.269531 36.097656 190.96875 36.097656 C 190.96875 39.300781 190.96875 42.503906 190.96875 45.804688 C 188.347656 45.804688 185.726562 45.804688 183.023438 45.804688 C 183.023438 42.601562 183.023438 39.398438 183.023438 36.097656 Z M 183.023438 36.097656 "/>
<path style=" stroke:none;fill-rule:nonzero;fill:rgb(98.823529%,98.823529%,98.431373%);fill-opacity:1;" d="M 164.398438 36.097656 C 167.019531 36.097656 169.640625 36.097656 172.34375 36.097656 C 172.34375 39.300781 172.34375 42.503906 172.34375 45.804688 C 169.722656 45.804688 167.097656 45.804688 164.398438 45.804688 C 164.398438 42.601562 164.398438 39.398438 164.398438 36.097656 Z M 164.398438 36.097656 "/>
<path style=" stroke:none;fill-rule:nonzero;fill:rgb(99.215686%,99.215686%,98.823529%);fill-opacity:1;" d="M 145.773438 36.097656 C 148.394531 36.097656 151.015625 36.097656 153.71875 36.097656 C 153.71875 39.300781 153.71875 42.503906 153.71875 45.804688 C 151.097656 45.804688 148.472656 45.804688 145.773438 45.804688 C 145.773438 42.601562 145.773438 39.398438 145.773438 36.097656 Z M 145.773438 36.097656 "/>
<path style=" stroke:none;fill-rule:nonzero;fill:rgb(99.215686%,99.215686%,98.431373%);fill-opacity:1;" d="M 127.148438 36.097656 C 129.769531 36.097656 132.390625 36.097656 135.09375 36.097656 C 135.09375 39.300781 135.09375 42.503906 135.09375 45.804688 C 132.472656 45.804688 129.847656 45.804688 127.148438 45.804688 C 127.148438 42.601562 127.148438 39.398438 127.148438 36.097656 Z M 127.148438 36.097656 "/>
<path style=" stroke:none;fill-rule:nonzero;fill:rgb(98.823529%,98.823529%,98.431373%);fill-opacity:1;" d="M 108.523438 36.097656 C 111.144531 36.097656 113.765625 36.097656 116.46875 36.097656 C 116.46875 39.300781 116.46875 42.503906 116.46875 45.804688 C 113.847656 45.804688 111.222656 45.804688 108.523438 45.804688 C 108.523438 42.601562 108.523438 39.398438 108.523438 36.097656 Z M 108.523438 36.097656 "/>
<path style=" stroke:none;fill-rule:nonzero;fill:rgb(99.215686%,99.215686%,98.431373%);fill-opacity:1;" d="M 89.898438 36.097656 C 92.519531 36.097656 95.140625 36.097656 97.84375 36.097656 C 97.84375 39.300781 97.84375 42.503906 97.84375 45.804688 C 95.222656 45.804688 92.597656 45.804688 89.898438 45.804688 C 89.898438 42.601562 89.898438 39.398438 89.898438 36.097656 Z M 89.898438 36.097656 "/>
<path style=" stroke:none;fill-rule:nonzero;fill:rgb(98.823529%,98.823529%,98.431373%);fill-opacity:1;" d="M 220.273438 30.121094 C 222.894531 30.121094 225.519531 30.121094 228.21875 30.121094 C 228.21875 33.328125 228.21875 36.53125 228.21875 39.832031 C 225.597656 39.832031 222.976562 39.832031 220.273438 39.832031 C 220.273438 36.628906 220.273438 33.421875 220.273438 30.121094 Z M 220.273438 30.121094 "/>
<path style=" stroke:none;fill-rule:nonzero;fill:rgb(98.823529%,98.823529%,98.431373%);fill-opacity:1;" d="M 201.648438 23.898438 C 204.269531 23.898438 206.894531 23.898438 209.59375 23.898438 C 209.59375 27.101562 209.59375 30.304688 209.59375 33.609375 C 206.972656 33.609375 204.351562 33.609375 201.648438 33.609375 C 201.648438 30.402344 201.648438 27.199219 201.648438 23.898438 Z M 201.648438 23.898438 "/>
<path style=" stroke:none;fill-rule:nonzero;fill:rgb(98.431373%,98.431373%,98.039216%);fill-opacity:1;" d="M 183.023438 23.898438 C 185.644531 23.898438 188.269531 23.898438 190.96875 23.898438 C 190.96875 27.101562 190.96875 30.304688 190.96875 33.609375 C 188.347656 33.609375 185.726562 33.609375 183.023438 33.609375 C 183.023438 30.402344 183.023438 27.199219 183.023438 23.898438 Z M 183.023438 23.898438 "/>
<path style=" stroke:none;fill-rule:nonzero;fill:rgb(98.823529%,98.823529%,98.431373%);fill-opacity:1;" d="M 145.773438 23.898438 C 148.394531 23.898438 151.015625 23.898438 153.71875 23.898438 C 153.71875 27.101562 153.71875 30.304688 153.71875 33.609375 C 151.097656 33.609375 148.472656 33.609375 145.773438 33.609375 C 145.773438 30.402344 145.773438 27.199219 145.773438 23.898438 Z M 145.773438 23.898438 "/>
<path style=" stroke:none;fill-rule:nonzero;fill:rgb(98.431373%,98.823529%,98.039216%);fill-opacity:1;" d="M 127.148438 23.898438 C 129.769531 23.898438 132.390625 23.898438 135.09375 23.898438 C 135.09375 27.101562 135.09375 30.304688 135.09375 33.609375 C 132.472656 33.609375 129.847656 33.609375 127.148438 33.609375 C 127.148438 30.402344 127.148438 27.199219 127.148438 23.898438 Z M 127.148438 23.898438 "/>
<path style=" stroke:none;fill-rule:nonzero;fill:rgb(98.431373%,98.431373%,98.431373%);fill-opacity:1;" d="M 108.523438 23.898438 C 111.144531 23.898438 113.765625 23.898438 116.46875 23.898438 C 116.46875 27.101562 116.46875 30.304688 116.46875 33.609375 C 113.847656 33.609375 111.222656 33.609375 108.523438 33.609375 C 108.523438 30.402344 108.523438 27.199219 108.523438 23.898438 Z M 108.523438 23.898438 "/>
<path style=" stroke:none;fill-rule:nonzero;fill:rgb(98.039216%,98.431373%,98.039216%);fill-opacity:1;" d="M 99.085938 23.898438 C 101.707031 23.898438 104.332031 23.898438 107.03125 23.898438 C 107.03125 27.101562 107.03125 30.304688 107.03125 33.609375 C 104.410156 33.609375 101.789062 33.609375 99.085938 33.609375 C 99.085938 30.402344 99.085938 27.199219 99.085938 23.898438 Z M 99.085938 23.898438 "/>
<path style=" stroke:none;fill-rule:nonzero;fill:rgb(98.431373%,98.431373%,98.039216%);fill-opacity:1;" d="M 89.898438 23.898438 C 92.519531 23.898438 95.140625 23.898438 97.84375 23.898438 C 97.84375 27.101562 97.84375 30.304688 97.84375 33.609375 C 95.222656 33.609375 92.597656 33.609375 89.898438 33.609375 C 89.898438 30.402344 89.898438 27.199219 89.898438 23.898438 Z M 89.898438 23.898438 "/>
<path style=" stroke:none;fill-rule:nonzero;fill:rgb(98.823529%,98.823529%,98.431373%);fill-opacity:1;" d="M 220.273438 17.925781 C 222.894531 17.925781 225.519531 17.925781 228.21875 17.925781 C 228.21875 21.128906 228.21875 24.332031 228.21875 27.632812 C 225.597656 27.632812 222.976562 27.632812 220.273438 27.632812 C 220.273438 24.429688 220.273438 21.226562 220.273438 17.925781 Z M 220.273438 17.925781 "/>
<path style=" stroke:none;fill-rule:nonzero;fill:rgb(98.823529%,98.823529%,98.431373%);fill-opacity:1;" d="M 211.085938 17.925781 C 213.707031 17.925781 216.328125 17.925781 219.03125 17.925781 C 219.03125 21.128906 219.03125 24.332031 219.03125 27.632812 C 216.410156 27.632812 213.785156 27.632812 211.085938 27.632812 C 211.085938 24.429688 211.085938 21.226562 211.085938 17.925781 Z M 211.085938 17.925781 "/>
<path style=" stroke:none;fill-rule:nonzero;fill:rgb(98.823529%,98.823529%,98.431373%);fill-opacity:1;" d="M 145.773438 11.699219 C 148.394531 11.699219 151.015625 11.699219 153.71875 11.699219 C 153.71875 14.90625 153.71875 18.109375 153.71875 21.410156 C 151.097656 21.410156 148.472656 21.410156 145.773438 21.410156 C 145.773438 18.207031 145.773438 15 145.773438 11.699219 Z M 145.773438 11.699219 "/>
<path style=" stroke:none;fill-rule:nonzero;fill:rgb(99.607843%,99.215686%,99.215686%);fill-opacity:1;" d="M 201.648438 11.949219 C 204.269531 11.949219 206.894531 11.949219 209.59375 11.949219 C 209.59375 15.070312 209.59375 18.191406 209.59375 21.410156 C 206.972656 21.410156 204.351562 21.410156 201.648438 21.410156 C 201.648438 18.289062 201.648438 15.164062 201.648438 11.949219 Z M 201.648438 11.949219 "/>
</g>
</svg>
